<svg id="visual" viewBox="0 0 900 675" width="900" height="675" xmlns="http://www.w3.org/2000/svg" xmlns:xlink="http://www.w3.org/1999/xlink" version="1.1"><rect width="900" height="675" fill="#183E80"></rect><g><g transform="translate(89 111)"><path d="M163.5 -95.7C196.5 -37.3 197.2 38.5 164.6 93.6C131.9 148.7 66 183.2 1.1 182.6C-63.9 182 -127.7 146.3 -159.5 91.7C-191.2 37.1 -190.8 -36.4 -158.8 -94.1C-126.9 -151.9 -63.4 -193.9 0.9 -194.4C65.3 -194.9 130.6 -154 163.5 -95.7Z" stroke="#405A93" fill="none" stroke-width="3"></path></g><g transform="translate(545 522)"><path d="M136.8 -79.4C165 -30.3 166.9 33.6 139.7 80.1C112.5 126.7 56.3 155.9 0.2 155.7C-55.8 155.6 -111.6 126.1 -137.8 80.1C-164.1 34.1 -160.9 -28.5 -133 -77.4C-105.1 -126.4 -52.6 -161.7 0.9 -162.2C54.4 -162.8 108.7 -128.5 136.8 -79.4Z" stroke="#405A93" fill="none" stroke-width="3"></path></g><g transform="translate(870 126)"><path d="M107.2 -60C129.4 -23.4 131.3 26.8 110.1 64.7C88.8 102.7 44.4 128.4 0.7 128C-43.1 127.6 -86.2 101.1 -108.6 62.5C-131 23.9 -132.7 -26.9 -111.2 -63.1C-89.6 -99.3 -44.8 -120.9 -1.2 -120.2C42.5 -119.5 84.9 -96.6 107.2 -60Z" stroke="#405A93" fill="none" stroke-width="3"></path></g><g transform="translate(29 668)"><path d="M106.8 -59.6C128.3 -24.3 128.9 25.2 107.6 59.8C86.3 94.4 43.1 114.2 0 114.2C-43.2 114.2 -86.3 94.5 -106.5 60.5C-126.6 26.6 -123.8 -21.6 -102.2 -57C-80.6 -92.3 -40.3 -114.8 1.1 -115.4C42.6 -116.1 85.2 -94.9 106.8 -59.6Z" stroke="#405A93" fill="none" stroke-width="3"></path></g></g></svg>