<svg id="visual" viewBox="0 0 900 600" width="900" height="600" xmlns="http://www.w3.org/2000/svg" xmlns:xlink="http://www.w3.org/1999/xlink" version="1.1"><rect width="900" height="600" fill="#013F85"></rect><g><g transform="translate(654 580)"><path d="M205.4 -71.1C227.6 1.6 180.4 92.4 108.9 142.7C37.3 193 -58.5 202.6 -118.7 159.7C-179 116.8 -203.7 21.3 -178 -56.2C-152.3 -133.7 -76.1 -193.2 7.7 -195.7C91.6 -198.2 183.2 -143.7 205.4 -71.1Z" stroke="#385B97" fill="none" stroke-width="6"></path></g><g transform="translate(12 62)"><path d="M178.4 -64C200.2 9.2 165.6 94.8 102.4 140.6C39.2 186.4 -52.5 192.5 -109.1 151.2C-165.7 109.8 -187.2 21 -163.1 -55.2C-139.1 -131.5 -69.5 -195.3 4.4 -196.7C78.3 -198.1 156.6 -137.2 178.4 -64Z" stroke="#385B97" fill="none" stroke-width="6"></path></g><g transform="translate(899 40)"><path d="M120.1 -42.4C137.7 15.2 121.7 80.4 76.6 115.5C31.5 150.7 -42.7 155.9 -93.6 120.8C-144.5 85.7 -172.1 10.4 -152.6 -49.8C-133.1 -110.1 -66.6 -155.3 -7.7 -152.8C51.2 -150.3 102.5 -100.1 120.1 -42.4Z" stroke="#385B97" fill="none" stroke-width="6"></path></g></g></svg>