<svg id="visual" viewBox="0 0 900 600" width="900" height="600" xmlns="http://www.w3.org/2000/svg" xmlns:xlink="http://www.w3.org/1999/xlink" version="1.1"><path d="M0 67L129 73L257 73L386 67L514 67L643 67L771 79L900 73L900 0L771 0L643 0L514 0L386 0L257 0L129 0L0 0Z" fill="#223d7c"></path><path d="M0 103L129 103L257 109L386 97L514 97L643 103L771 115L900 109L900 71L771 77L643 65L514 65L386 65L257 71L129 71L0 65Z" fill="#2b4381"></path><path d="M0 127L129 127L257 133L386 121L514 121L643 127L771 139L900 133L900 107L771 113L643 101L514 95L386 95L257 107L129 101L0 101Z" fill="#324a85"></path><path d="M0 181L129 181L257 181L386 175L514 169L643 181L771 193L900 193L900 131L771 137L643 125L514 119L386 119L257 131L129 125L0 125Z" fill="#3a5089"></path><path d="M0 211L129 211L257 211L386 205L514 199L643 205L771 217L900 217L900 191L771 191L643 179L514 167L386 173L257 179L129 179L0 179Z" fill="#42568d"></path><path d="M0 241L129 241L257 241L386 235L514 229L643 235L771 247L900 247L900 215L771 215L643 203L514 197L386 203L257 209L129 209L0 209Z" fill="#45598f"></path><path d="M0 355L129 349L257 355L386 361L514 349L643 355L771 355L900 349L900 245L771 245L643 233L514 227L386 233L257 239L129 239L0 239Z" fill="#45598f"></path><path d="M0 391L129 385L257 391L386 397L514 391L643 391L771 391L900 385L900 347L771 353L643 353L514 347L386 359L257 353L129 347L0 353Z" fill="#42568d"></path><path d="M0 415L129 409L257 415L386 421L514 415L643 415L771 415L900 409L900 383L771 389L643 389L514 389L386 395L257 389L129 383L0 389Z" fill="#3a5089"></path><path d="M0 535L129 529L257 535L386 535L514 529L643 529L771 535L900 535L900 407L771 413L643 413L514 413L386 419L257 413L129 407L0 413Z" fill="#324a85"></path><path d="M0 559L129 553L257 559L386 559L514 553L643 553L771 559L900 559L900 533L771 533L643 527L514 527L386 533L257 533L129 527L0 533Z" fill="#2b4381"></path><path d="M0 601L129 601L257 601L386 601L514 601L643 601L771 601L900 601L900 557L771 557L643 551L514 551L386 557L257 557L129 551L0 557Z" fill="#223d7c"></path></svg>