<svg id="visual" viewBox="0 0 900 600" width="900" height="600" xmlns="http://www.w3.org/2000/svg" xmlns:xlink="http://www.w3.org/1999/xlink" version="1.1"><path d="M0 25L150 25L300 25L450 25L600 25L750 25L900 25L900 0L750 0L600 0L450 0L300 0L150 0L0 0Z" fill="#183e80"></path><path d="M0 49L150 49L300 49L450 49L600 49L750 49L900 49L900 23L750 23L600 23L450 23L300 23L150 23L0 23Z" fill="#183976"></path><path d="M0 97L150 97L300 97L450 103L600 97L750 97L900 103L900 47L750 47L600 47L450 47L300 47L150 47L0 47Z" fill="#17356d"></path><path d="M0 121L150 121L300 121L450 127L600 121L750 121L900 127L900 101L750 95L600 95L450 101L300 95L150 95L0 95Z" fill="#163163"></path><path d="M0 247L150 235L300 241L450 241L600 247L750 247L900 253L900 125L750 119L600 119L450 125L300 119L150 119L0 119Z" fill="#152d5a"></path><path d="M0 355L150 349L300 349L450 349L600 355L750 355L900 361L900 251L750 245L600 245L450 239L300 239L150 233L0 245Z" fill="#152b56"></path><path d="M0 391L150 385L300 385L450 385L600 391L750 385L900 397L900 359L750 353L600 353L450 347L300 347L150 347L0 353Z" fill="#152b56"></path><path d="M0 439L150 433L300 433L450 433L600 439L750 433L900 439L900 395L750 383L600 389L450 383L300 383L150 383L0 389Z" fill="#152d5a"></path><path d="M0 505L150 505L300 505L450 505L600 505L750 505L900 505L900 437L750 431L600 437L450 431L300 431L150 431L0 437Z" fill="#163163"></path><path d="M0 535L150 535L300 535L450 535L600 535L750 535L900 535L900 503L750 503L600 503L450 503L300 503L150 503L0 503Z" fill="#17356d"></path><path d="M0 577L150 571L300 571L450 577L600 577L750 571L900 571L900 533L750 533L600 533L450 533L300 533L150 533L0 533Z" fill="#183976"></path><path d="M0 601L150 601L300 601L450 601L600 601L750 601L900 601L900 569L750 569L600 575L450 575L300 569L150 569L0 575Z" fill="#183e80"></path></svg>