<svg width="124" height="24" viewBox="0 0 124 24" fill="none" xmlns="http://www.w3.org/2000/svg">
<g clip-path="url(#clip0_5102_49)">
<path d="M39.812 11.3499V23.8816H43.8746V19.2327H51.1869V15.5946H43.8746V12.1584C43.8746 11.7119 44.2388 11.3499 44.6876 11.3499H51.1874V7.71155H43.8746C41.6313 7.71155 39.812 9.34048 39.812 11.3499Z" fill="white"/>
<path d="M32.5 7.71155H26C23.7564 7.71155 21.9375 9.34048 21.9375 11.3499V23.8816H26V19.2327H32.5V23.8816H36.5627V11.3499C36.5627 9.34048 34.7434 7.71155 32.5 7.71155ZM32.5 15.5946H26V12.1584C26 11.7119 26.3638 11.3499 26.8126 11.3499H31.6875C32.136 11.3499 32.5 11.7119 32.5 12.1584V15.5946Z" fill="white"/>
<path d="M14.6254 20.2433H11.3751V7.71155H7.3128V20.2433H4.87497C4.4262 20.2433 4.06235 19.8812 4.06235 19.4349V7.71155H0V20.2433C0 22.2528 1.81871 23.8816 4.06235 23.8816H18.6878V7.71155H14.6254V20.2433Z" fill="white"/>
<path d="M54.0305 23.8816H58.093V7.71155H54.0305V23.8816Z" fill="white"/>
<path d="M70.687 7.71155H64.9997C62.7561 7.71155 60.9368 9.34048 60.9368 11.3499V20.2433C60.9368 22.2528 62.7561 23.8816 64.9997 23.8816H70.687C72.9305 23.8816 74.7499 22.2528 74.7499 20.2433V11.3499C74.7499 9.34048 72.9305 7.71155 70.687 7.71155ZM70.687 19.4351C70.687 19.8812 70.3233 20.2433 69.8748 20.2433H65.8123C65.3629 20.2433 64.9997 19.8812 64.9997 19.4349V12.1584C64.9997 11.7119 65.3633 11.3499 65.8123 11.3499H69.8748C70.3237 11.3499 70.687 11.7119 70.687 12.1584V19.4351Z" fill="white"/>
<path d="M85.3124 13.9774H82.0617C81.6136 13.9774 81.2499 13.6154 81.2499 13.169V12.1584C81.2499 11.7119 81.6136 11.3499 82.0617 11.3499H88.5621V7.71155H81.2499C79.0059 7.71155 77.187 9.34048 77.187 11.3499V13.9774C77.187 15.987 79.0059 17.6157 81.2499 17.6157H84.4997C84.9482 17.6157 85.3124 17.9778 85.3124 18.4243V19.4349C85.3124 19.8812 84.9482 20.2433 84.4997 20.2433H77.5934V23.8816H85.3124C87.5559 23.8816 89.3748 22.2528 89.3748 20.2433V17.6157C89.3748 15.6062 87.5559 13.9774 85.3124 13.9774Z" fill="white"/>
<path d="M117.375 -0.00012207V16.7168C117.375 17.5408 116.703 18.2092 115.874 18.2092H108.375V23.8811H117.375C120.688 23.8811 123.375 21.2082 123.375 17.9107V-0.00012207H117.375Z" fill="white"/>
<path d="M114.375 0H105.375C102.061 0 99.375 2.67314 99.375 5.97037V23.8813H105.375V7.16433C105.375 6.34002 106.047 5.67183 106.875 5.67183H114.375V0Z" fill="white"/>
</g>
<defs>
<clipPath id="clip0_5102_49">
<rect width="124" height="24" fill="white"/>
</clipPath>
</defs>
</svg>
