<?xml version="1.0" encoding="utf-8"?>
<!-- Generator: Adobe Illustrator 28.1.0, SVG Export Plug-In . SVG Version: 6.00 Build 0)  -->
<svg version="1.1" id="Layer_1" xmlns="http://www.w3.org/2000/svg" xmlns:xlink="http://www.w3.org/1999/xlink" x="0px" y="0px"
	 viewBox="0 0 552 205.78" style="enable-background:new 0 0 552 205.78;" xml:space="preserve">
<style type="text/css">
	.st0{fill:#14284D;}
	.st1{fill:#333333;}
	.st2{fill:url(#SVGID_1_);}
	.st3{fill:none;stroke:#4A3E29;stroke-width:0.0406;stroke-miterlimit:10;}
	.st4{fill:url(#SVGID_00000147195178032415917640000008491153660701448376_);}
	.st5{fill:url(#SVGID_00000154402941116203694870000004235078164729307537_);}
	.st6{fill:url(#SVGID_00000046341956739085449600000003055737542281192847_);}
	.st7{fill:url(#SVGID_00000119093755829191067150000011242084957732291477_);}
</style>
<g>
	<g>
		<g>
			<path class="st0" d="M161.05,61.74c0.07,2.95,0.14,6.13,0.14,9.51c0,7.42-0.79,10.45-3.39,13.26c-2.95,3.1-6.92,3.96-18.23,3.96
				c-7.14,0-10.09-0.36-12.9-1.51c-6.27-2.67-8.65-7.64-8.65-18.38c0-11.82,0.29-15.78,1.37-19.1c1.37-4.47,4.69-7.5,9.51-8.86
				c2.38-0.65,5.84-0.94,12.54-0.94c8.58,0,11.39,0.43,14.63,2.31c3.39,1.95,4.76,5.55,4.97,12.76h-11.24
				c-0.43-4.97-1.66-5.76-9.44-5.76c-6.27,0-8.72,0.79-9.95,3.31c-0.94,1.87-1.01,2.23-1.08,11.03c0.14,10.59,0.14,10.67,1.01,12.61
				c1.01,2.38,3.6,3.24,9.44,3.24c8.58,0,10.38-1.37,10.38-8c0-0.14-0.07-0.86-0.14-1.59h-10.45v-7.85H161.05z"/>
			<path class="st0" d="M185.99,88.11h-11.1V40.05h11.1V88.11z"/>
			<path class="st0" d="M201.62,40.05h24.93c4.69,0,7.57,0.5,9.59,1.66c3.24,1.8,4.76,5.33,4.76,11.03c0,4.61-0.79,6.99-2.81,8.65
				c-1.44,1.15-2.67,1.66-4.68,2.02v0.22c6.41,0.79,8.5,3.53,8.5,11.39c0,9.8-3.68,13.12-14.63,13.12h-25.65V40.05z M222.38,59.72
				c4.4-0.07,4.76-0.14,5.69-0.72c1.3-0.72,1.8-2.16,1.8-4.83c0-4.11-1.01-4.97-5.48-4.97h-11.67v10.52H222.38z M222.02,78.96
				c7.5,0,8.86-0.87,8.86-5.48c0-3.31-0.58-4.76-2.23-5.48c-0.94-0.36-1.15-0.36-5.4-0.43h-10.52v11.39H222.02z"/>
			<path class="st0" d="M255.6,40.05h24.93c4.69,0,7.57,0.5,9.59,1.66c3.24,1.8,4.76,5.33,4.76,11.03c0,4.61-0.79,6.99-2.81,8.65
				c-1.44,1.15-2.67,1.66-4.68,2.02v0.22c6.41,0.79,8.5,3.53,8.5,11.39c0,9.8-3.68,13.12-14.63,13.12H255.6V40.05z M276.35,59.72
				c4.4-0.07,4.76-0.14,5.69-0.72c1.3-0.72,1.8-2.16,1.8-4.83c0-4.11-1.01-4.97-5.48-4.97H266.7v10.52H276.35z M275.99,78.96
				c7.49,0,8.86-0.87,8.86-5.48c0-3.31-0.58-4.76-2.23-5.48c-0.94-0.36-1.15-0.36-5.4-0.43H266.7v11.39H275.99z"/>
			<path class="st0" d="M336.02,54.6c0-5.48-1.08-6.34-7.85-6.34c-7.49,0-9.08,1.01-9.08,5.62c0,2.95,0.86,4.32,3.03,4.9
				c1.01,0.22,1.01,0.22,8.79,0.72c7.71,0.43,10.38,1.01,12.83,2.59c3.1,2.02,4.18,4.83,4.18,11.17c0,6.2-0.86,9.44-3.17,11.6
				c-3.03,2.81-6.85,3.6-16.5,3.6c-11.75,0-15.93-1.15-18.3-4.97c-1.51-2.31-2.02-4.83-2.02-10.81h10.59v0.86
				c0,2.59,0.43,4.04,1.51,5.04c1.15,0.94,2.16,1.08,8.72,1.08c4.4,0,5.48-0.22,6.7-1.15c1.01-0.79,1.51-2.31,1.51-4.83
				c0-2.09-0.36-3.39-1.3-4.04c-1.15-0.94-1.15-0.94-9.87-1.51c-7.85-0.51-10.09-0.87-12.54-2.09c-3.75-1.87-5.26-5.4-5.26-12.25
				c0-5.76,1.23-9.3,3.89-11.24c3.1-2.16,6.99-2.88,15.93-2.88c9.8,0,13.76,0.94,16.22,3.82c1.8,2.16,2.67,5.04,2.67,9.15
				c0,0.29,0,1.15-0.07,1.95H336.02z"/>
			<path class="st1" d="M125.6,152.17h-5.4V104.1h5.4V152.17z"/>
			<path class="st1" d="M183.03,152.17h-8.86l-20.18-32.72l-3.24-5.4l-1.66-2.67l-1.59-2.67h-0.14l0.07,1.8v1.8v3.6v36.25h-5.4
				V104.1h8.86l17.51,28.68l4.61,7.5l2.31,3.75l2.23,3.75h0.14l-0.07-1.8v-1.8v-3.6V104.1h5.41V152.17z"/>
			<path class="st1" d="M217.12,152.17h-5.41v-43.02h-15.64v-5.04h36.61v5.12l-15.57-0.07V152.17z"/>
			<path class="st1" d="M251.13,125.07h24.36v4.54h-24.36v17.87h25.44v4.68h-30.84V104.1h30.84v4.68h-25.44V125.07z"/>
			<path class="st1" d="M290.91,104.1h22.84c10.3,0,14.05,3.68,14.05,13.84c0,8.72-1.87,11.6-8.29,12.68v0.07
				c4.97,0.29,7.71,3.6,7.64,9.3v12.18h-5.4v-10.95c0.14-6.13-2.59-8.58-9.08-8.36h-16.36v19.31h-5.4V104.1z M311.95,128.17
				c7.93,0,10.45-2.09,10.45-8.58c0-4.97-0.29-7.06-1.3-8.43c-1.08-1.59-3.46-2.38-7.28-2.38h-17.51v19.39H311.95z"/>
			<path class="st1" d="M395.4,152.17h-8.22l-10.09-34.59c-0.94-3.03-1.44-4.9-1.66-5.62l-0.86-3.03h-0.07l-0.65,2.16l-0.58,2.16
				l-1.3,4.32l-10.3,34.59h-8.07l-14.77-48.07h5.55l10.38,34.52l1.37,4.68c0.29,1.01,0.65,2.02,1.37,4.68h0.14l0.65-2.31l0.65-2.38
				l1.37-4.61l10.23-34.59h8l10.16,34.59l1.37,4.68l0.65,2.31l0.65,2.31h0.14l0.65-2.38l0.72-2.31l1.44-4.76l10.59-34.45h5.62
				L395.4,152.17z"/>
			<path class="st1" d="M428.84,152.17h-5.4V104.1h5.4V152.17z"/>
			<path class="st1" d="M445.27,104.1h22.84c10.3,0,14.05,3.68,14.05,13.84c0,8.72-1.87,11.6-8.29,12.68v0.07
				c4.97,0.29,7.71,3.6,7.64,9.3v12.18h-5.4v-10.95c0.14-6.13-2.59-8.58-9.08-8.36h-16.36v19.31h-5.4V104.1z M466.31,128.17
				c7.93,0,10.45-2.09,10.45-8.58c0-4.97-0.29-7.06-1.3-8.43c-1.08-1.59-3.46-2.38-7.28-2.38h-17.51v19.39H466.31z"/>
			<path class="st1" d="M502.56,125.07h24.36v4.54h-24.36v17.87H528v4.68h-30.84V104.1H528v4.68h-25.44V125.07z"/>
		</g>
		<g>
			<g>
				<path class="st1" d="M207.22,175.36l-0.79,2.45h-2.57l4.25-12.78h3.62l4.33,12.78h-2.51l-0.82-2.45H207.22z M209.98,166.91
					l-2.19,6.63h4.39L209.98,166.91z"/>
				<path class="st1" d="M234.27,173.26v0.44c0,1.92-0.19,2.62-0.88,3.28c-0.4,0.38-1.07,0.71-1.78,0.84
					c-0.4,0.06-1.53,0.12-2.66,0.12c-2.2,0-2.8-0.1-3.64-0.58c-1.11-0.59-1.59-1.55-1.73-3.37c-0.06-0.73-0.1-2.3-0.1-3.47
					c0-2.66,0.25-3.64,1.11-4.47c0.96-0.92,1.92-1.13,5.02-1.13c2.03,0,2.84,0.17,3.49,0.73c0.54,0.46,0.86,1.13,0.98,2.07
					c0.04,0.31,0.06,0.69,0.08,1.57h-2.43c-0.04-2.05-0.27-2.26-2.45-2.26c-1.63,0-2.34,0.13-2.72,0.5
					c-0.33,0.33-0.46,0.79-0.5,1.76c-0.02,0.33-0.02,0.33-0.02,2.07c0,4.2,0.17,4.47,2.91,4.47c2.49,0,2.91-0.31,2.91-2.03
					c0-0.12,0-0.29-0.02-0.54H234.27z"/>
				<path class="st1" d="M244.07,169.5c0.67,0.63,0.92,1.59,0.92,3.62c0,3.99-0.73,4.81-4.22,4.81c-2.11,0-3.12-0.33-3.66-1.21
					c-0.44-0.71-0.58-1.53-0.58-3.72c0-1.96,0.27-2.91,0.96-3.53c0.63-0.56,1.44-0.73,3.33-0.73
					C242.65,168.75,243.47,168.94,244.07,169.5z M238.74,173.26c0,2.63,0.25,2.99,1.99,2.99c1.8,0,2.05-0.38,2.05-3.09
					c0-2.36-0.27-2.72-2.03-2.72C239.01,170.44,238.74,170.8,238.74,173.26z"/>
				<path class="st1" d="M249.92,168.87l-0.06,1.38h0.04c0.46-1.05,1.26-1.5,2.72-1.5c1.61,0,2.53,0.58,2.7,1.67h0.04
					c0.44-1.17,1.3-1.67,2.84-1.67c1.28,0,2.22,0.38,2.66,1.09c0.27,0.44,0.4,1.07,0.4,2.05v5.92h-2.17v-5.46
					c0-0.54-0.08-1.05-0.19-1.28c-0.17-0.36-0.61-0.56-1.32-0.56c-0.9,0-1.59,0.29-1.82,0.77c-0.13,0.25-0.19,0.69-0.19,1.3v5.23
					h-2.17v-5.54c0-0.61-0.06-1.03-0.15-1.23c-0.17-0.34-0.65-0.54-1.34-0.54c-1.42,0-1.99,0.59-1.99,2.11v5.19h-2.17v-8.95H249.92z
					"/>
				<path class="st1" d="M264.32,165.03h2.17v5.12l0.04,0.02c0.4-1.02,1.19-1.42,2.82-1.42c1.13,0,1.97,0.27,2.47,0.77
					c0.67,0.65,0.88,1.61,0.88,3.81c0,2.07-0.17,2.86-0.77,3.62c-0.5,0.67-1.4,0.98-2.76,0.98c-1.51,0-2.24-0.42-2.74-1.53h-0.04
					l0.1,1.42h-2.17V165.03z M266.52,173.06c0,2.72,0.27,3.16,2.01,3.16c1.65,0,1.95-0.46,1.95-2.89c0-2.38-0.31-2.86-1.9-2.86
					C267,170.48,266.52,171.09,266.52,173.06z"/>
				<path class="st1" d="M277.98,166.87h-2.17v-1.84h2.17V166.87z M277.98,177.82h-2.17v-8.95h2.17V177.82z"/>
				<path class="st1" d="M283.24,168.87l-0.08,1.51h0.04c0.42-1.13,1.28-1.63,2.78-1.63c1.44,0,2.4,0.4,2.84,1.17
					c0.23,0.42,0.31,0.82,0.31,1.8v6.09h-2.17v-5.39c0-1.61-0.27-1.94-1.59-1.94c-1.46,0-2.11,0.61-2.11,2.01v5.31h-2.2v-8.95
					H283.24z"/>
				<path class="st1" d="M300.09,174.96c0,2.28-0.9,2.97-3.85,2.97c-3.58,0-4.39-0.84-4.39-4.64c0-1.96,0.21-2.91,0.79-3.57
					c0.63-0.69,1.63-0.98,3.43-0.98c2.34,0,3.33,0.52,3.79,1.94c0.19,0.63,0.23,1.07,0.23,3.05h-6.06v0.34
					c0,1.82,0.38,2.24,2.03,2.24c1.57,0,1.86-0.21,1.88-1.36H300.09z M297.96,172.05c-0.04-1.42-0.33-1.69-1.94-1.69
					c-1.17,0-1.59,0.15-1.82,0.71c-0.12,0.29-0.13,0.54-0.15,1.32h3.91V172.05z"/>
				<path class="st1" d="M310.84,177.82h-2.11l0.08-1.44l-0.04-0.02c-0.46,1.15-1.19,1.57-2.74,1.57c-1.23,0-2.13-0.29-2.66-0.84
					c-0.65-0.69-0.82-1.51-0.82-3.91c0-2.01,0.19-2.84,0.81-3.55c0.5-0.59,1.36-0.88,2.62-0.88c1.51,0,2.28,0.4,2.66,1.4l0.04-0.02
					v-5.1h2.17V177.82z M304.73,173.22c0,2.53,0.31,3.03,1.92,3.03c1.74,0,2.03-0.44,2.03-3.09c0-2.2-0.36-2.68-2.05-2.68
					C305.04,170.48,304.73,170.94,304.73,173.22z"/>
				<path class="st1" d="M334.67,177.82h-2.42v-6.98c0-0.92,0.02-1.17,0.1-2.84l0.04-0.94h-0.08l-0.29,0.88
					c-0.54,1.67-0.67,2.11-0.88,2.66l-2.82,7.21h-2.2l-2.84-7.15c-0.25-0.61-0.38-1.02-0.92-2.66l-0.29-0.88H322l0.06,0.92
					c0.08,1.61,0.1,2.01,0.1,2.8v6.98h-2.42v-12.78h3.95l2.28,5.92c0.23,0.59,0.36,1.02,0.9,2.65l0.29,0.9h0.08l0.29-0.88
					c0.5-1.61,0.65-2.05,0.86-2.64l2.26-5.94h4.02V177.82z"/>
				<path class="st1" d="M345.72,174.96c0,2.28-0.9,2.97-3.85,2.97c-3.58,0-4.39-0.84-4.39-4.64c0-1.96,0.21-2.91,0.79-3.57
					c0.63-0.69,1.63-0.98,3.43-0.98c2.34,0,3.33,0.52,3.79,1.94c0.19,0.63,0.23,1.07,0.23,3.05h-6.06v0.34
					c0,1.82,0.38,2.24,2.03,2.24c1.57,0,1.86-0.21,1.88-1.36H345.72z M343.59,172.05c-0.04-1.42-0.33-1.69-1.94-1.69
					c-1.17,0-1.59,0.15-1.82,0.71c-0.12,0.29-0.13,0.54-0.15,1.32h3.91V172.05z"/>
				<path class="st1" d="M354.44,170.5h-3.41v4.48c0,1.04,0.17,1.28,0.92,1.28c0.84,0,1.05-0.31,1.05-1.53c0-0.08,0-0.17-0.02-0.36
					h1.82v0.52c0,1.25-0.12,1.71-0.48,2.2c-0.46,0.59-1.21,0.84-2.59,0.84c-1.5,0-2.24-0.33-2.64-1.11
					c-0.19-0.36-0.23-0.67-0.23-1.53v-4.79h-1.17v-1.63h1.17v-1.99h2.17v1.99h3.41V170.5z"/>
				<path class="st1" d="M357.26,171.45c0-0.92,0.1-1.36,0.38-1.76c0.48-0.69,1.42-0.94,3.41-0.94c3.14,0,4.06,0.73,4.06,3.22v5.85
					h-2.17l0.1-1.23h-0.06c-0.48,1.04-1.13,1.34-2.84,1.34c-2.4,0-3.26-0.73-3.26-2.78c0-2.03,0.9-2.8,3.3-2.8
					c1.74,0,2.36,0.23,2.72,1.04h0.04v-1.46c0-1.42-0.36-1.76-1.82-1.76c-1.36,0-1.65,0.21-1.69,1.28H357.26z M359.1,175.04
					c0,1.11,0.34,1.36,1.88,1.36s1.99-0.31,1.99-1.3c0-1.02-0.44-1.3-1.99-1.3C359.48,173.79,359.1,174.04,359.1,175.04z"/>
				<path class="st1" d="M370.33,177.82h-2.17v-12.78h2.17V177.82z"/>
				<path class="st1" d="M378.75,171.32c-0.1-0.98-0.25-1.07-1.76-1.07c-1.55,0-1.82,0.15-1.82,1.07c0,0.56,0.15,0.84,0.5,0.96
					c0.21,0.06,0.31,0.08,1.8,0.13c1.96,0.1,2.43,0.19,2.91,0.56c0.54,0.4,0.8,1.11,0.8,2.09s-0.29,1.71-0.82,2.17
					c-0.63,0.52-1.53,0.71-3.39,0.71c-2.47,0-3.49-0.4-3.83-1.55c-0.13-0.4-0.15-0.58-0.15-1.38h2.22v0.27
					c0,0.94,0.33,1.15,1.88,1.15c1.57,0,1.96-0.23,1.96-1.19c0-0.86-0.27-1.09-1.28-1.11c-3.93-0.04-4.71-0.48-4.71-2.7
					c0-2.11,0.84-2.66,4.03-2.66c2.99,0,3.79,0.54,3.79,2.57H378.75z"/>
				<path class="st1" d="M400.05,173.26v0.44c0,1.92-0.19,2.62-0.88,3.28c-0.4,0.38-1.07,0.71-1.78,0.84
					c-0.4,0.06-1.53,0.12-2.66,0.12c-2.2,0-2.8-0.1-3.64-0.58c-1.11-0.59-1.59-1.55-1.72-3.37c-0.06-0.73-0.1-2.3-0.1-3.47
					c0-2.66,0.25-3.64,1.11-4.47c0.96-0.92,1.92-1.13,5.02-1.13c2.03,0,2.84,0.17,3.49,0.73c0.54,0.46,0.86,1.13,0.98,2.07
					c0.04,0.31,0.06,0.69,0.08,1.57h-2.43c-0.04-2.05-0.27-2.26-2.45-2.26c-1.63,0-2.34,0.13-2.72,0.5
					c-0.33,0.33-0.46,0.79-0.5,1.76c-0.02,0.33-0.02,0.33-0.02,2.07c0,4.2,0.17,4.47,2.91,4.47c2.49,0,2.91-0.31,2.91-2.03
					c0-0.12,0-0.29-0.02-0.54H400.05z"/>
				<path class="st1" d="M409.84,169.5c0.67,0.63,0.92,1.59,0.92,3.62c0,3.99-0.73,4.81-4.22,4.81c-2.11,0-3.12-0.33-3.66-1.21
					c-0.44-0.71-0.57-1.53-0.57-3.72c0-1.96,0.27-2.91,0.96-3.53c0.63-0.56,1.44-0.73,3.33-0.73
					C408.43,168.75,409.25,168.94,409.84,169.5z M404.52,173.26c0,2.63,0.25,2.99,1.99,2.99c1.8,0,2.05-0.38,2.05-3.09
					c0-2.36-0.27-2.72-2.03-2.72C404.78,170.44,404.52,170.8,404.52,173.26z"/>
				<path class="st1" d="M415.69,168.87l-0.06,1.38h0.04c0.46-1.05,1.27-1.5,2.72-1.5c1.61,0,2.53,0.58,2.7,1.67h0.04
					c0.44-1.17,1.3-1.67,2.84-1.67c1.28,0,2.22,0.38,2.66,1.09c0.27,0.44,0.4,1.07,0.4,2.05v5.92h-2.17v-5.46
					c0-0.54-0.08-1.05-0.19-1.28c-0.17-0.36-0.61-0.56-1.32-0.56c-0.9,0-1.59,0.29-1.82,0.77c-0.13,0.25-0.19,0.69-0.19,1.3v5.23
					h-2.17v-5.54c0-0.61-0.06-1.03-0.15-1.23c-0.17-0.34-0.65-0.54-1.34-0.54c-1.42,0-1.99,0.59-1.99,2.11v5.19h-2.17v-8.95H415.69z
					"/>
				<path class="st1" d="M432.14,168.87l-0.08,1.32l0.04,0.02c0.59-1.13,1.26-1.46,2.89-1.46c1.15,0,2.01,0.27,2.53,0.79
					c0.65,0.67,0.9,1.67,0.9,3.72c0,3.58-0.8,4.68-3.43,4.68c-1.61,0-2.28-0.34-2.76-1.42h-0.04v5.14h-2.22v-12.78H432.14z
					 M432.22,173.28c0,2.38,0.38,2.93,2.03,2.93c1.63,0,1.97-0.5,1.97-2.8c0-2.51-0.31-2.97-2.01-2.97
					C432.56,170.44,432.22,170.94,432.22,173.28z"/>
				<path class="st1" d="M441.21,171.45c0-0.92,0.1-1.36,0.38-1.76c0.48-0.69,1.42-0.94,3.41-0.94c3.14,0,4.06,0.73,4.06,3.22v5.85
					h-2.17l0.1-1.23h-0.06c-0.48,1.04-1.13,1.34-2.84,1.34c-2.4,0-3.26-0.73-3.26-2.78c0-2.03,0.9-2.8,3.3-2.8
					c1.74,0,2.36,0.23,2.72,1.04h0.04v-1.46c0-1.42-0.36-1.76-1.82-1.76c-1.36,0-1.65,0.21-1.69,1.28H441.21z M443.05,175.04
					c0,1.11,0.34,1.36,1.88,1.36s1.99-0.31,1.99-1.3c0-1.02-0.44-1.3-1.99-1.3C443.43,173.79,443.05,174.04,443.05,175.04z"/>
				<path class="st1" d="M454.31,168.87l-0.08,1.51h0.04c0.42-1.13,1.28-1.63,2.78-1.63c1.44,0,2.4,0.4,2.84,1.17
					c0.23,0.42,0.31,0.82,0.31,1.8v6.09h-2.17v-5.39c0-1.61-0.27-1.94-1.59-1.94c-1.46,0-2.11,0.61-2.11,2.01v5.31h-2.2v-8.95
					H454.31z"/>
				<path class="st1" d="M468.22,178.37c-0.65,2.68-1.42,3.41-3.58,3.41c-0.29,0-0.46,0-0.75-0.04v-1.57l0.4,0.02
					c0.58,0,0.98-0.17,1.17-0.5c0.29-0.42,0.52-1.11,0.63-1.88H465l-2.93-8.95h2.3l1.11,3.79l0.58,1.9c0.17,0.65,0.34,1.23,0.52,1.9
					h0.06c0.1-0.5,0.21-1.02,0.33-1.51c0.04-0.21,0.21-0.96,0.5-2.28l0.88-3.79h2.24L468.22,178.37z"/>
			</g>
			<g>
				<g>
					<g>
						<linearGradient id="SVGID_1_" gradientUnits="userSpaceOnUse" x1="479.378" y1="163.2292" x2="526.8356" y2="163.2292">
							<stop  offset="0" style="stop-color:#836632"/>
							<stop  offset="0.3418" style="stop-color:#BE9244"/>
							<stop  offset="0.3764" style="stop-color:#C89C50"/>
							<stop  offset="0.4458" style="stop-color:#D7AC62"/>
							<stop  offset="0.5185" style="stop-color:#E0B56D"/>
							<stop  offset="0.599" style="stop-color:#E3B871"/>
							<stop  offset="0.6629" style="stop-color:#DEB36C"/>
							<stop  offset="0.7366" style="stop-color:#D0A65E"/>
							<stop  offset="0.8126" style="stop-color:#BA9048"/>
							<stop  offset="0.8301" style="stop-color:#B48B45"/>
							<stop  offset="1" style="stop-color:#7A5F2D"/>
						</linearGradient>
						<polygon class="st2" points="478.49,161.62 482.61,164.84 523.87,164.84 528,161.62 						"/>
						<polygon class="st3" points="478.49,161.62 482.61,164.84 523.87,164.84 528,161.62 						"/>
					</g>
					<g>
						
							<linearGradient id="SVGID_00000089547997680117298930000001301711090671673269_" gradientUnits="userSpaceOnUse" x1="479.8215" y1="175.3082" x2="526.5693" y2="175.3082">
							<stop  offset="0" style="stop-color:#836632"/>
							<stop  offset="0.0531" style="stop-color:#8D6D35"/>
							<stop  offset="0.3299" style="stop-color:#BE9244"/>
							<stop  offset="0.567" style="stop-color:#DBB068"/>
							<stop  offset="0.6231" style="stop-color:#E3B871"/>
							<stop  offset="0.8126" style="stop-color:#BA9048"/>
							<stop  offset="0.8301" style="stop-color:#B48B45"/>
							<stop  offset="1" style="stop-color:#7A5F2D"/>
						</linearGradient>
						<polygon style="fill:url(#SVGID_00000089547997680117298930000001301711090671673269_);" points="498.09,176.92 508.4,176.92 
							512.53,173.7 493.96,173.7 						"/>
						<polygon class="st3" points="498.09,176.92 508.4,176.92 512.53,173.7 493.96,173.7 						"/>
					</g>
					<g>
						
							<linearGradient id="SVGID_00000128475937313930082460000017192552378673615767_" gradientUnits="userSpaceOnUse" x1="479.9046" y1="171.2819" x2="527.1038" y2="171.2819">
							<stop  offset="0" style="stop-color:#836632"/>
							<stop  offset="0.0551" style="stop-color:#8D6D35"/>
							<stop  offset="0.342" style="stop-color:#BE9244"/>
							<stop  offset="0.4135" style="stop-color:#CB9F54"/>
							<stop  offset="0.537" style="stop-color:#DDB169"/>
							<stop  offset="0.6173" style="stop-color:#E3B871"/>
							<stop  offset="0.7227" style="stop-color:#CAA058"/>
							<stop  offset="0.8126" style="stop-color:#BA9048"/>
							<stop  offset="0.8301" style="stop-color:#B48B45"/>
							<stop  offset="1" style="stop-color:#7A5F2D"/>
						</linearGradient>
						<polygon style="fill:url(#SVGID_00000128475937313930082460000017192552378673615767_);" points="492.93,172.89 
							513.56,172.89 517.68,169.67 488.8,169.67 						"/>
						<polygon class="st3" points="492.93,172.89 513.56,172.89 517.68,169.67 488.8,169.67 						"/>
					</g>
					<g>
						
							<linearGradient id="SVGID_00000011024692743196009320000004788344839538970781_" gradientUnits="userSpaceOnUse" x1="479.4633" y1="167.2555" x2="526.7487" y2="167.2555">
							<stop  offset="0" style="stop-color:#836632"/>
							<stop  offset="0.0601" style="stop-color:#8D6D35"/>
							<stop  offset="0.3733" style="stop-color:#BE9244"/>
							<stop  offset="0.5416" style="stop-color:#D9AD64"/>
							<stop  offset="0.6368" style="stop-color:#E3B871"/>
							<stop  offset="0.6973" style="stop-color:#D9AE67"/>
							<stop  offset="0.8005" style="stop-color:#BE944C"/>
							<stop  offset="0.8126" style="stop-color:#BA9048"/>
							<stop  offset="0.8301" style="stop-color:#B48B45"/>
							<stop  offset="1" style="stop-color:#7A5F2D"/>
						</linearGradient>
						<polygon style="fill:url(#SVGID_00000011024692743196009320000004788344839538970781_);" points="487.77,168.87 
							518.72,168.87 522.84,165.65 483.65,165.65 						"/>
						<polygon class="st3" points="487.77,168.87 518.72,168.87 522.84,165.65 483.65,165.65 						"/>
					</g>
					<g>
						
							<linearGradient id="SVGID_00000182521035451785434460000012154360733630353315_" gradientUnits="userSpaceOnUse" x1="479.4524" y1="179.3346" x2="526.3017" y2="179.3346">
							<stop  offset="0" style="stop-color:#836632"/>
							<stop  offset="0.0592" style="stop-color:#8D6D35"/>
							<stop  offset="0.3675" style="stop-color:#BE9244"/>
							<stop  offset="0.4601" style="stop-color:#C79C4F"/>
							<stop  offset="0.6243" style="stop-color:#E0B56E"/>
							<stop  offset="0.641" style="stop-color:#E3B871"/>
							<stop  offset="0.6882" style="stop-color:#D3A961"/>
							<stop  offset="0.7611" style="stop-color:#C1964F"/>
							<stop  offset="0.8126" style="stop-color:#BA9048"/>
							<stop  offset="0.8301" style="stop-color:#B48B45"/>
							<stop  offset="1" style="stop-color:#7A5F2D"/>
						</linearGradient>
						<polygon style="fill:url(#SVGID_00000182521035451785434460000012154360733630353315_);" points="503.24,180.95 
							507.37,177.72 499.12,177.72 						"/>
						<polygon class="st3" points="503.24,180.95 507.37,177.72 499.12,177.72 						"/>
					</g>
				</g>
			</g>
		</g>
	</g>
	<g>
		<path class="st1" d="M93.4,112.37c-9.35-0.99-16.14-9.37-15.15-18.72c0.99-9.35,10.09-16.19,18.17-15.23
			c1.79,0.21,1.79-1.18,1.79-1.18V25.1C98.16,24.49,97.66,24,97.04,24l-3.59,0c-0.68,0-1.23,0.55-1.23,1.23L92.2,66.81l-8.6-40.49
			c-0.16-0.77-0.91-1.25-1.68-1.09l-3.11,0.66c-0.77,0.16-1.25,0.91-1.09,1.68l8.59,40.49L69.54,30.33c-0.34-0.76-1.24-1.11-2-0.77
			l-2.81,1.25c-0.71,0.32-1.04,1.15-0.72,1.87L80.83,70.5L56.51,37.01c-0.46-0.63-1.35-0.77-1.98-0.31l-2.57,1.87
			c-0.63,0.46-0.77,1.35-0.31,1.98l24.32,33.5L45.28,46.4c-0.62-0.56-1.58-0.51-2.15,0.11l-2.06,2.28c-0.52,0.58-0.48,1.48,0.1,2
			L71.93,78.5l-35.65-20.6c-0.71-0.41-1.61-0.18-2.05,0.51l-1.66,2.65c-0.39,0.68-0.16,1.54,0.52,1.93l35.84,20.71l-39.36-12.8
			c-0.74-0.24-1.54,0.17-1.78,0.91l-0.98,3.02c-0.24,0.74,0.16,1.54,0.91,1.78l39.36,12.8L25.9,85.09
			c-0.78-0.08-1.47,0.48-1.56,1.26l-0.33,3.16c-0.08,0.78,0.48,1.47,1.26,1.56l41.16,4.34l-41.17,4.32
			c-0.78,0.08-1.34,0.78-1.26,1.56l0.33,3.16c0.08,0.78,0.78,1.34,1.56,1.26l41.17-4.31l-39.37,12.78
			c-0.74,0.24-1.15,1.04-0.91,1.78l0.98,3.02c0.24,0.74,1.04,1.15,1.78,0.91l39.37-12.78L33.07,127.8
			c-0.68,0.39-0.91,1.26-0.52,1.93l1.59,2.75c0.39,0.68,1.26,0.91,1.93,0.52l35.85-20.68l-30.77,27.69c-0.58,0.52-0.63,1.42-0.11,2
			l2.13,2.36c0.52,0.58,1.42,0.63,2,0.11l30.77-27.69l-24.34,33.48c-0.46,0.63-0.32,1.52,0.31,1.98l2.57,1.87
			c0.63,0.46,1.52,0.32,1.98-0.31l24.34-33.48l-16.67,37.42c-0.4,0.91,0,1.97,0.9,2.39l2.55,1.17c0.71,0.32,1.55,0,1.87-0.72
			l16.85-37.81l-8.5,39.95c-0.2,0.94,0.37,1.88,1.3,2.13l2.79,0.75c0.77,0.16,1.52-0.33,1.68-1.09l8.62-40.48l-0.01,41.39
			c0,0.78,0.63,1.42,1.42,1.42l3.18,0c0.76,0,1.37-0.6,1.41-1.36v-51.11c0,0,0.04-2.08-2.14-1.93
			C95.17,112.5,94.29,112.46,93.4,112.37z"/>
	</g>
</g>
</svg>
