<svg width="124" height="24" viewBox="0 0 124 24" fill="none" xmlns="http://www.w3.org/2000/svg">
<path d="M39.8121 11.3499V23.8816H43.8747V19.2327H51.187V15.5946H43.8747V12.1584C43.8747 11.7119 44.2389 11.3499 44.6877 11.3499H51.1875V7.71154H43.8747C41.6314 7.71154 39.8121 9.34047 39.8121 11.3499Z" fill="#1B458F"/>
<path d="M32.4999 7.71154H25.9999C23.7563 7.71154 21.9374 9.34047 21.9374 11.3499V23.8816H25.9999V19.2327H32.4999V23.8816H36.5626V11.3499C36.5626 9.34047 34.7433 7.71154 32.4999 7.71154ZM32.4999 15.5946H25.9999V12.1584C25.9999 11.7119 26.3637 11.3499 26.8125 11.3499H31.6874C32.1359 11.3499 32.4999 11.7119 32.4999 12.1584V15.5946Z" fill="#1B458F"/>
<path d="M14.6254 20.2433H11.3751V7.71154H7.3128V20.2433H4.87497C4.4262 20.2433 4.06235 19.8812 4.06235 19.4349V7.71154H0V20.2433C0 22.2528 1.81871 23.8816 4.06235 23.8816H18.6878V7.71154H14.6254V20.2433Z" fill="#1B458F"/>
<path d="M54.0306 23.8816H58.0931V7.71154H54.0306V23.8816Z" fill="#1B458F"/>
<path d="M70.687 7.71154H64.9997C62.7561 7.71154 60.9368 9.34047 60.9368 11.3499V20.2433C60.9368 22.2528 62.7561 23.8816 64.9997 23.8816H70.687C72.9305 23.8816 74.7499 22.2528 74.7499 20.2433V11.3499C74.7499 9.34047 72.9305 7.71154 70.687 7.71154ZM70.687 19.4351C70.687 19.8812 70.3233 20.2433 69.8748 20.2433H65.8123C65.3629 20.2433 64.9997 19.8812 64.9997 19.4349V12.1584C64.9997 11.7119 65.3633 11.3499 65.8123 11.3499H69.8748C70.3237 11.3499 70.687 11.7119 70.687 12.1584V19.4351Z" fill="#1B458F"/>
<path d="M85.3125 13.9774H82.0618C81.6137 13.9774 81.25 13.6154 81.25 13.169V12.1584C81.25 11.7119 81.6137 11.3499 82.0618 11.3499H88.5622V7.71154H81.25C79.006 7.71154 77.1871 9.34047 77.1871 11.3499V13.9774C77.1871 15.987 79.006 17.6157 81.25 17.6157H84.4998C84.9483 17.6157 85.3125 17.9778 85.3125 18.4243V19.4349C85.3125 19.8812 84.9483 20.2433 84.4998 20.2433H77.5935V23.8816H85.3125C87.556 23.8816 89.3749 22.2528 89.3749 20.2433V17.6157C89.3749 15.6062 87.556 13.9774 85.3125 13.9774Z" fill="#1B458F"/>
<path d="M117.375 -0.000125404V16.7168C117.375 17.5408 116.703 18.2092 115.874 18.2092H108.375V23.8811H117.375C120.688 23.8811 123.375 21.2082 123.375 17.9107V-0.000125404H117.375Z" fill="#1B458F"/>
<path d="M114.375 -1.02598e-05H105.375C102.061 -1.02598e-05 99.3749 2.67313 99.3749 5.97036V23.8813H105.375V7.16432C105.375 6.34001 106.047 5.67182 106.875 5.67182H114.375V-1.02598e-05Z" fill="#1B458F"/>
</svg>
