<svg width="378" height="95" viewBox="0 0 378 95" fill="none" xmlns="http://www.w3.org/2000/svg">
<g clip-path="url(#clip0_5138_41)">
<path d="M115.748 57.8786V94.4932H127.559V80.9104H148.818V70.2806H127.559V60.241C127.559 58.9364 128.617 57.8786 129.922 57.8786H148.819V47.2484H127.559C121.037 47.2484 115.748 52.0077 115.748 57.8786Z" fill="white"/>
<path d="M94.488 47.2484H75.5907C69.0678 47.2484 63.7798 52.0077 63.7798 57.8786V94.4932H75.5907V80.9104H94.488V94.4932H106.3V57.8786C106.3 52.0077 101.01 47.2484 94.488 47.2484ZM94.488 70.2806H75.5907V60.241C75.5907 58.9364 76.6485 57.8786 77.9531 57.8786H92.1261C93.4298 57.8786 94.488 58.9364 94.488 60.241V70.2806Z" fill="white"/>
<path d="M42.5203 83.863H33.0708V47.2484H21.2604V83.863H14.1729C12.8682 83.863 11.8104 82.8051 11.8104 81.501V47.2484H0V83.863C0 89.7343 5.28751 94.4932 11.8104 94.4932H54.3307V47.2484H42.5203V83.863Z" fill="white"/>
<path d="M157.085 94.4932H168.896V47.2484H157.085V94.4932Z" fill="white"/>
<path d="M205.511 47.2484H188.976C182.453 47.2484 177.164 52.0077 177.164 57.8786V83.863C177.164 89.7343 182.453 94.4932 188.976 94.4932H205.511C212.033 94.4932 217.323 89.7343 217.323 83.863V57.8786C217.323 52.0077 212.033 47.2484 205.511 47.2484ZM205.511 81.5015C205.511 82.8051 204.453 83.863 203.149 83.863H191.339C190.032 83.863 188.976 82.8051 188.976 81.501V60.241C188.976 58.9364 190.033 57.8786 191.339 57.8786H203.149C204.455 57.8786 205.511 58.9364 205.511 60.241V81.5015Z" fill="white"/>
<path d="M248.032 65.5557H238.581C237.279 65.5557 236.221 64.4978 236.221 63.1937V60.241C236.221 58.9364 237.279 57.8786 238.581 57.8786H257.48V47.2484H236.221C229.697 47.2484 224.409 52.0077 224.409 57.8786V65.5557C224.409 71.427 229.697 76.1858 236.221 76.1858H245.669C246.973 76.1858 248.032 77.2437 248.032 78.5484V81.501C248.032 82.8051 246.973 83.863 245.669 83.863H225.591V94.4932H248.032C254.555 94.4932 259.843 89.7343 259.843 83.863V76.1858C259.843 70.3145 254.555 65.5557 248.032 65.5557Z" fill="white"/>
<path d="M354.331 0.00413161V66.1463C354.331 69.4068 351.685 72.0511 348.424 72.0511H318.897V94.4927H354.331C367.376 94.4927 377.953 83.9172 377.953 70.8703V0.00413161H354.331Z" fill="white"/>
<path d="M342.519 0.0040885H307.085C294.04 0.0040885 283.464 10.5806 283.464 23.6265V94.4932H307.085V28.3505C307.085 25.089 309.731 22.4453 312.992 22.4453H342.519V0.0040885Z" fill="white"/>
</g>
<defs>
<clipPath id="clip0_5138_41">
<rect width="377.947" height="94.4933" fill="white"/>
</clipPath>
</defs>
</svg>
